<svg xmlns="http://www.w3.org/2000/svg" viewBox="0 0 1024 1024" role="img" aria-labelledby="title desc">
  <title id="title">Team IGP scheduler icon</title>
  <desc id="desc">A symbolic calendar with three team availability colors and an event marker.</desc>
  <defs>
    <linearGradient id="background" x1="136" x2="888" y1="104" y2="920" gradientUnits="userSpaceOnUse">
      <stop offset="0" stop-color="#008080"/>
      <stop offset="1" stop-color="#006b72"/>
    </linearGradient>
    <filter id="shadow" x="138" y="152" width="748" height="768" color-interpolation-filters="sRGB" filterUnits="userSpaceOnUse">
      <feDropShadow dx="0" dy="28" flood-color="#003f43" flood-opacity="0.32" stdDeviation="30"/>
    </filter>
  </defs>

  <rect width="1024" height="1024" fill="url(#background)"/>
  <circle cx="804" cy="216" r="96" fill="#f6edbd" opacity="0.9"/>
  <circle cx="174" cy="812" r="118" fill="#ca562c" opacity="0.18"/>

  <g filter="url(#shadow)">
    <rect x="188" y="178" width="648" height="682" rx="106" fill="#fbfaf7"/>
    <rect x="188" y="178" width="648" height="188" rx="106" fill="#202325"/>
    <path d="M188 282c0-58.5 47.5-106 106-106h436c58.5 0 106 47.5 106 106v84H188v-84Z" fill="#202325"/>

    <rect x="312" y="128" width="62" height="134" rx="31" fill="#f6edbd"/>
    <rect x="650" y="128" width="62" height="134" rx="31" fill="#f6edbd"/>

    <circle cx="336" cy="272" r="26" fill="#f6edbd"/>
    <circle cx="512" cy="272" r="26" fill="#f6edbd"/>
    <circle cx="688" cy="272" r="26" fill="#f6edbd"/>

    <rect x="284" y="444" width="456" height="66" rx="24" fill="#e9e1d6"/>
    <rect x="284" y="548" width="456" height="66" rx="24" fill="#e9e1d6"/>
    <rect x="284" y="652" width="456" height="66" rx="24" fill="#e9e1d6"/>

    <path d="M284 468c0-13.3 10.7-24 24-24h128v66H284v-42Z" fill="#77c7c7"/>
    <path d="M436 444h152v66H436z" fill="#f6edbd"/>
    <path d="M588 444h128c13.3 0 24 10.7 24 24v18c0 13.3-10.7 24-24 24H588v-66Z" fill="#df7446"/>

    <path d="M284 572c0-13.3 10.7-24 24-24h280v66H308c-13.3 0-24-10.7-24-24v-18Z" fill="#77c7c7"/>
    <path d="M588 548h128c13.3 0 24 10.7 24 24v18c0 13.3-10.7 24-24 24H588v-66Z" fill="#df7446"/>

    <path d="M284 676c0-13.3 10.7-24 24-24h128v66H308c-13.3 0-24-10.7-24-24v-18Z" fill="#77c7c7"/>
    <path d="M436 652h152v66H436z" fill="#f6edbd"/>
    <path d="M588 652h128c13.3 0 24 10.7 24 24v18c0 13.3-10.7 24-24 24H588v-66Z" fill="#df7446"/>

    <rect x="242" y="402" width="540" height="358" rx="46" fill="none" stroke="#202325" stroke-opacity="0.08" stroke-width="18"/>
  </g>

  <g>
    <circle cx="736" cy="736" r="116" fill="#ca562c"/>
    <circle cx="736" cy="736" r="84" fill="none" stroke="#fbfaf7" stroke-width="34"/>
    <path d="M736 642v94l66 40" fill="none" stroke="#fbfaf7" stroke-linecap="round" stroke-linejoin="round" stroke-width="34"/>
  </g>
</svg>
